<svg width="31" height="31" viewBox="0 0 31 31" fill="none" xmlns="http://www.w3.org/2000/svg">
<path d="M27.2567 25.2672C28.8275 23.3773 29.92 21.1369 30.4417 18.7355C30.9635 16.3341 30.8992 13.8424 30.2543 11.4711C29.6095 9.09981 28.4029 6.91871 26.7368 5.11233C25.0707 3.30595 22.994 1.92741 20.6825 1.09335C18.3709 0.259293 15.8925 -0.00576122 13.4568 0.320614C11.0212 0.646989 8.69996 1.55519 6.68954 2.96839C4.67911 4.38159 3.03863 6.25822 1.90687 8.43951C0.775104 10.6208 0.185353 13.0426 0.187506 15.5C0.188332 19.0724 1.44723 22.5304 3.74329 25.2672L3.72141 25.2858C3.79797 25.3777 3.88547 25.4564 3.96422 25.5472C4.06266 25.6599 4.16876 25.766 4.27047 25.8753C4.57672 26.2078 4.89172 26.5272 5.22204 26.8269C5.32266 26.9188 5.42657 27.0041 5.52829 27.0916C5.87829 27.3935 6.23813 27.68 6.6111 27.9469C6.65922 27.9797 6.70297 28.0224 6.7511 28.0563V28.0432C9.31278 29.8458 12.3687 30.8133 15.5011 30.8133C18.6335 30.8133 21.6894 29.8458 24.2511 28.0432V28.0563C24.2992 28.0224 24.3419 27.9797 24.3911 27.9469C24.763 27.6789 25.1239 27.3935 25.4739 27.0916C25.5756 27.0041 25.6795 26.9177 25.7802 26.8269C26.1105 26.5261 26.4255 26.2078 26.7317 25.8753C26.8334 25.766 26.9384 25.6599 27.038 25.5472C27.1156 25.4564 27.2042 25.3777 27.2808 25.2847L27.2567 25.2672ZM15.5 6.75003C16.4735 6.75003 17.4251 7.03869 18.2345 7.57951C19.0439 8.12033 19.6747 8.88903 20.0472 9.78838C20.4198 10.6877 20.5172 11.6774 20.3273 12.6321C20.1374 13.5869 19.6686 14.4639 18.9803 15.1522C18.292 15.8405 17.415 16.3093 16.4602 16.4992C15.5055 16.6891 14.5158 16.5916 13.6165 16.2191C12.7171 15.8466 11.9484 15.2157 11.4076 14.4063C10.8668 13.597 10.5781 12.6454 10.5781 11.6719C10.5781 10.3665 11.0967 9.11464 12.0197 8.19161C12.9427 7.26858 14.1946 6.75003 15.5 6.75003V6.75003ZM6.75766 25.2672C6.77664 23.8311 7.36026 22.4602 8.38227 21.4511C9.40428 20.4419 10.7825 19.8758 12.2188 19.875H18.7813C20.2175 19.8758 21.5957 20.4419 22.6177 21.4511C23.6398 22.4602 24.2234 23.8311 24.2424 25.2672C21.8436 27.4288 18.729 28.6251 15.5 28.6251C12.271 28.6251 9.15643 27.4288 6.75766 25.2672V25.2672Z" fill="#C4C4C4"/>
</svg>
